<?xml version="1.0" encoding="UTF-8" standalone="no"?>
<!DOCTYPE svg PUBLIC "-//W3C//DTD SVG 1.1//EN" "http://www.w3.org/Graphics/SVG/1.1/DTD/svg11.dtd">
<svg width="100%" height="100%" viewBox="0 0 115 365" version="1.1" xmlns="http://www.w3.org/2000/svg" xmlns:xlink="http://www.w3.org/1999/xlink" xml:space="preserve" xmlns:serif="http://www.serif.com/" style="fill-rule:evenodd;clip-rule:evenodd;stroke-linecap:round;stroke-linejoin:round;">
    <g id="Metal_visible">
        <rect x="0.003" y="-0.016" width="114.236" height="364.252" style="fill:rgb(65,64,66);"/>
    </g>
    <g id="Gold_-_standalone">
        <g>
            <path d="M67.191,337.049C40.089,331.102 10.09,322.254 13.107,337.43C17.323,358.642 117.378,297.983 113.047,328.034" style="fill:none;fill-rule:nonzero;stroke:rgb(212,175,55);stroke-width:0.25px;"/>
            <path d="M48.577,337C76.415,328.979 106.163,318.565 108.088,330.021C110.182,342.488 96.168,342.52 78.289,339.299" style="fill:none;fill-rule:nonzero;stroke:rgb(212,175,55);stroke-width:0.25px;"/>
            <path d="M58.344,336.807C30.6,330.045 2.466,321.413 1.306,334.722C0.023,349.443 22.82,344.434 47.683,337.284" style="fill:none;fill-rule:nonzero;stroke:rgb(212,175,55);stroke-width:0.25px;"/>
            <path d="M1.306,308.637C2.009,340.82 107.744,272.486 111.76,307.169C117.531,357.011 5.502,274.185 13.405,312.998C17.044,330.869 111.607,287.351 113.145,311.608C114.929,339.761 26.676,302.84 26.611,323.56C26.513,354.687 102.911,286.017 111.76,319.43C117.977,342.907 100.865,344.928 78.37,341.109" style="fill:none;fill-rule:nonzero;stroke:rgb(212,175,55);stroke-width:0.25px;"/>
            <path d="M109.735,286.24C109.768,320.52 -5.177,245.704 1.15,293.719C6.415,333.679 107.339,243.313 109.735,286.24C112.087,328.379 -1.885,268.508 1.306,308.637" style="fill:none;fill-rule:nonzero;stroke:rgb(212,175,55);stroke-width:0.25px;"/>
            <path d="M17.389,286.286C16.381,286.184 11.056,287.291 10.834,290.385C9.427,309.989 78.746,269.256 81.582,285.377C84.949,304.515 37.598,283.405 17.388,286.286" style="fill:none;fill-rule:nonzero;stroke:rgb(212,175,55);stroke-width:0.25px;"/>
        </g>
        <g>
            <path d="M43.181,149.938C43.132,150.863 42.55,151.318 41.43,151.318C40.737,151.318 40.282,151.122 39.98,150.702C39.749,150.38 39.658,149.987 39.658,149.28L39.658,148.216C39.658,147.438 39.763,147.032 40.051,146.702C40.365,146.338 40.786,146.177 41.43,146.177C42.509,146.177 43.062,146.639 43.111,147.592L42.271,147.655C42.208,147.158 41.941,146.92 41.444,146.92C40.8,146.92 40.575,147.277 40.575,148.279L40.575,149.217C40.575,150.225 40.8,150.575 41.458,150.575C41.969,150.575 42.257,150.338 42.326,149.84L43.181,149.938L43.181,149.938Z" style="fill:rgb(212,175,55);fill-rule:nonzero;"/>
            <path d="M43.648,146.241L44.565,146.241L45.728,150.001L46.884,146.241L47.801,146.241L46.12,151.241L45.329,151.241L43.648,146.241Z" style="fill:rgb(212,175,55);fill-rule:nonzero;"/>
            <path d="M51.041,146.101L51.903,146.101L50.228,151.381L49.367,151.381L51.041,146.101Z" style="fill:rgb(212,175,55);fill-rule:nonzero;"/>
            <path d="M54.66,150.254L54.337,151.241L53.343,151.241L55.157,146.241L56.046,146.241L57.86,151.241L56.866,151.241L56.551,150.254L54.66,150.254ZM55.605,147.333L54.876,149.518L56.327,149.518L55.605,147.333Z" style="fill:rgb(212,175,55);fill-rule:nonzero;"/>
            <path d="M59.21,147.648L59.21,149.603C59.21,150.303 59.371,150.576 59.777,150.576C60.225,150.576 60.386,150.282 60.386,149.497L60.386,147.648L61.255,147.648L61.255,151.241L60.652,151.241L60.547,150.905C60.351,151.199 60.085,151.318 59.609,151.318C58.999,151.318 58.607,151.087 58.446,150.625C58.376,150.429 58.341,150.142 58.341,149.7L58.341,147.648L59.21,147.648L59.21,147.648Z" style="fill:rgb(212,175,55);fill-rule:nonzero;"/>
            <path d="M64.495,150.989L64.446,151.031C64.208,151.241 63.963,151.318 63.529,151.318C62.583,151.318 62.177,150.835 62.177,149.708L62.177,149.182C62.177,148.062 62.583,147.571 63.515,147.571C63.767,147.571 63.942,147.607 64.152,147.697C64.18,147.707 64.224,147.735 64.285,147.781C64.313,147.796 64.313,147.802 64.348,147.817L64.348,146.241L65.217,146.241L65.217,151.241L64.544,151.241L64.495,150.989L64.495,150.989ZM63.038,149.644C63.038,150.317 63.242,150.618 63.69,150.618C64.138,150.618 64.349,150.359 64.349,149.798L64.349,149.091C64.349,148.531 64.138,148.265 63.69,148.265C63.242,148.265 63.038,148.566 63.038,149.245L63.038,149.644Z" style="fill:rgb(212,175,55);fill-rule:nonzero;"/>
            <path d="M66.265,146.198L67.133,146.198L67.133,147.088L66.265,147.088L66.265,146.198ZM66.265,147.648L67.133,147.648L67.133,151.241L66.265,151.241L66.265,147.648Z" style="fill:rgb(212,175,55);fill-rule:nonzero;"/>
            <path d="M68.064,149.175C68.064,148.047 68.526,147.571 69.618,147.571C70.704,147.571 71.166,148.047 71.166,149.175L71.166,149.714C71.166,150.842 70.704,151.318 69.618,151.318C68.526,151.318 68.064,150.842 68.064,149.714L68.064,149.175ZM70.298,149.231C70.298,148.545 70.102,148.265 69.618,148.265C69.128,148.265 68.932,148.545 68.932,149.231L68.932,149.651C68.932,150.338 69.128,150.618 69.618,150.618C70.102,150.618 70.298,150.338 70.298,149.651L70.298,149.231Z" style="fill:rgb(212,175,55);fill-rule:nonzero;"/>
        </g>
        <g>
            <path d="M46.483,276.883L45.565,276.883L45.565,271.882L47.246,271.882C47.94,271.882 48.311,271.994 48.591,272.281C48.85,272.561 48.962,272.918 48.962,273.472C48.962,274.074 48.829,274.459 48.521,274.732C48.248,274.977 47.884,275.075 47.246,275.075L46.483,275.075L46.483,276.883ZM47.246,274.333C47.821,274.333 48.052,274.081 48.052,273.472C48.052,272.862 47.821,272.617 47.246,272.617L46.469,272.617L46.469,274.333L47.246,274.333Z" style="fill:rgb(212,175,55);fill-rule:nonzero;"/>
            <path d="M50.543,273.29L50.543,275.244C50.543,275.944 50.704,276.217 51.11,276.217C51.558,276.217 51.719,275.923 51.719,275.139L51.719,273.29L52.588,273.29L52.588,276.883L51.985,276.883L51.88,276.547C51.684,276.841 51.418,276.96 50.942,276.96C50.332,276.96 49.94,276.729 49.779,276.267C49.709,276.07 49.674,275.783 49.674,275.342L49.674,273.29L50.543,273.29L50.543,273.29Z" style="fill:rgb(212,175,55);fill-rule:nonzero;"/>
            <path d="M54.484,271.882L54.484,275.468C54.476,276.014 54.624,276.183 55.1,276.175L55.233,276.175L55.233,276.883L55.065,276.883C53.888,276.883 53.615,276.602 53.615,275.384L53.615,271.882L54.484,271.882Z" style="fill:rgb(212,175,55);fill-rule:nonzero;"/>
            <path d="M56.044,275.902C56.254,276.196 56.429,276.273 56.857,276.273C57.34,276.273 57.571,276.126 57.571,275.818C57.571,275.664 57.501,275.552 57.375,275.503C57.3,275.47 57.109,275.435 56.801,275.397C55.911,275.286 55.596,275.013 55.596,274.354C55.596,273.619 56.058,273.213 56.891,273.213C57.564,273.213 58.005,273.423 58.3,273.899L57.655,274.27C57.466,273.99 57.291,273.899 56.955,273.899C56.612,273.899 56.422,274.046 56.422,274.312C56.422,274.571 56.555,274.655 57.046,274.711C57.606,274.774 57.858,274.838 58.068,274.984C58.285,275.138 58.397,275.432 58.397,275.832C58.397,276.602 57.914,276.96 56.891,276.96C56.142,276.96 55.652,276.735 55.407,276.273L56.044,275.902L56.044,275.902Z" style="fill:rgb(212,175,55);fill-rule:nonzero;"/>
            <path d="M59.958,275.412C59.958,275.979 60.224,276.28 60.735,276.28C61.078,276.28 61.288,276.175 61.477,275.909L62.115,276.28C61.814,276.764 61.393,276.96 60.637,276.96C59.552,276.96 59.082,276.441 59.082,275.236L59.082,274.984C59.082,273.73 59.53,273.213 60.623,273.213C61.716,273.213 62.164,273.73 62.164,274.984L62.164,275.3L59.958,275.3L59.958,275.412L59.958,275.412ZM61.344,274.697L61.344,274.62C61.344,274.13 61.099,273.864 60.644,273.864C60.203,273.864 59.951,274.137 59.951,274.62L59.951,274.697L61.344,274.697Z" style="fill:rgb(212,175,55);fill-rule:nonzero;"/>
            <path d="M63.408,275.902C63.618,276.196 63.794,276.273 64.221,276.273C64.704,276.273 64.935,276.126 64.935,275.818C64.935,275.664 64.865,275.552 64.739,275.503C64.665,275.47 64.473,275.435 64.165,275.397C63.275,275.286 62.96,275.013 62.96,274.354C62.96,273.619 63.423,273.213 64.256,273.213C64.928,273.213 65.37,273.423 65.664,273.899L65.019,274.27C64.83,273.99 64.655,273.899 64.319,273.899C63.976,273.899 63.787,274.046 63.787,274.312C63.787,274.571 63.92,274.655 64.41,274.711C64.971,274.774 65.223,274.838 65.433,274.984C65.65,275.138 65.762,275.432 65.762,275.832C65.762,276.602 65.279,276.96 64.256,276.96C63.507,276.96 63.016,276.735 62.771,276.273L63.409,275.902L63.408,275.902Z" style="fill:rgb(212,175,55);fill-rule:nonzero;"/>
        </g>
        <g>
            <path d="M55.185,228.524C55.136,229.449 54.554,229.904 53.434,229.904C52.74,229.904 52.285,229.708 51.984,229.288C51.753,228.966 51.662,228.573 51.662,227.866L51.662,226.802C51.662,226.024 51.767,225.618 52.054,225.288C52.369,224.924 52.79,224.763 53.434,224.763C54.512,224.763 55.066,225.225 55.115,226.178L54.275,226.241C54.212,225.744 53.945,225.506 53.448,225.506C52.803,225.506 52.579,225.862 52.579,226.864L52.579,227.803C52.579,228.811 52.803,229.161 53.462,229.161C53.973,229.161 54.26,228.924 54.33,228.426L55.185,228.524L55.185,228.524Z" style="fill:rgb(212,175,55);fill-rule:nonzero;"/>
            <path d="M55.652,224.827L56.569,224.827L57.732,228.587L58.887,224.827L59.805,224.827L58.124,229.827L57.333,229.827L55.652,224.827Z" style="fill:rgb(212,175,55);fill-rule:nonzero;"/>
        </g>
    </g>
    <g id="White-standalone">
        <g>
            <path d="M38.388,1.937L39.336,6.301L39.354,6.301L40.311,1.937L42.29,1.937L42.29,8.119L41.064,8.119L41.064,3.184L41.045,3.184L39.865,8.119L38.824,8.119L37.645,3.184L37.626,3.184L37.626,8.119L36.4,8.119L36.4,1.937L38.388,1.937Z" style="fill:white;fill-rule:nonzero;"/>
            <path d="M45.756,7.573C45.619,7.804 45.443,7.969 45.226,8.067C45.009,8.165 44.761,8.214 44.483,8.214C44.074,8.214 43.759,8.114 43.54,7.915C43.319,7.716 43.21,7.383 43.21,6.916L43.21,3.462L44.492,3.462L44.492,6.673C44.492,6.916 44.535,7.084 44.622,7.179C44.709,7.274 44.848,7.322 45.04,7.322C45.492,7.322 45.718,7.066 45.718,6.552L45.718,3.462L47,3.462L47,8.119L45.774,8.119L45.774,7.573L45.755,7.573L45.756,7.573Z" style="fill:white;fill-rule:nonzero;"/>
            <path d="M48.793,6.751C48.793,6.953 48.85,7.116 48.965,7.24C49.079,7.364 49.245,7.426 49.462,7.426C49.66,7.426 49.818,7.38 49.936,7.287C50.053,7.195 50.113,7.056 50.113,6.872C50.113,6.722 50.066,6.608 49.973,6.53C49.88,6.452 49.772,6.39 49.648,6.344L48.747,6.041C48.394,5.926 48.127,5.763 47.948,5.552C47.768,5.341 47.679,5.071 47.679,4.743C47.679,4.552 47.712,4.371 47.781,4.202C47.849,4.031 47.957,3.883 48.106,3.755C48.254,3.629 48.445,3.528 48.677,3.453C48.91,3.377 49.19,3.34 49.518,3.34C50.1,3.34 50.531,3.455 50.809,3.686C51.088,3.917 51.227,4.243 51.227,4.664L51.227,4.855L50.076,4.855C50.076,4.613 50.034,4.435 49.95,4.323C49.867,4.21 49.719,4.154 49.509,4.154C49.348,4.154 49.207,4.196 49.086,4.279C48.965,4.363 48.905,4.489 48.905,4.656C48.905,4.771 48.943,4.875 49.021,4.968C49.098,5.06 49.245,5.138 49.462,5.201L50.233,5.444C50.636,5.571 50.921,5.737 51.088,5.941C51.255,6.147 51.339,6.425 51.339,6.777C51.339,7.025 51.292,7.24 51.2,7.422C51.107,7.603 50.978,7.755 50.814,7.876C50.65,7.998 50.454,8.084 50.229,8.136C50.002,8.188 49.753,8.214 49.481,8.214C49.121,8.214 48.823,8.182 48.584,8.119C48.346,8.055 48.157,7.96 48.017,7.833C47.878,7.706 47.781,7.552 47.725,7.37C47.669,7.188 47.641,6.984 47.641,6.76L47.641,6.595L48.793,6.595L48.793,6.751L48.793,6.751Z" style="fill:white;fill-rule:nonzero;"/>
            <path d="M53.308,1.869L53.308,2.89L52.026,2.89L52.026,1.869L53.308,1.869ZM53.308,3.461L53.308,8.119L52.026,8.119L52.026,3.461L53.308,3.461Z" style="fill:white;fill-rule:nonzero;"/>
            <path d="M56.593,4.803C56.577,4.693 56.549,4.594 56.509,4.504C56.469,4.415 56.411,4.343 56.337,4.288C56.262,4.233 56.163,4.205 56.04,4.205C55.884,4.205 55.758,4.239 55.658,4.305C55.559,4.371 55.485,4.47 55.436,4.599C55.386,4.729 55.352,4.894 55.333,5.093C55.315,5.292 55.305,5.527 55.305,5.799C55.305,6.087 55.315,6.334 55.333,6.538C55.352,6.744 55.386,6.912 55.436,7.045C55.485,7.178 55.555,7.274 55.645,7.335C55.735,7.396 55.85,7.426 55.993,7.426C56.21,7.426 56.368,7.339 56.467,7.166C56.566,6.993 56.615,6.716 56.615,6.335L57.842,6.335C57.842,6.947 57.694,7.413 57.401,7.733C57.106,8.053 56.618,8.214 55.937,8.214C55.615,8.214 55.335,8.178 55.096,8.105C54.858,8.033 54.66,7.904 54.502,7.716C54.344,7.529 54.225,7.277 54.144,6.963C54.064,6.648 54.024,6.257 54.024,5.79C54.024,5.311 54.073,4.914 54.172,4.599C54.271,4.285 54.41,4.034 54.59,3.846C54.77,3.659 54.984,3.528 55.231,3.452C55.479,3.377 55.752,3.34 56.049,3.34C56.643,3.34 57.091,3.502 57.391,3.824C57.692,4.148 57.842,4.586 57.842,5.14L56.615,5.14C56.615,5.025 56.608,4.912 56.593,4.803L56.593,4.803Z" style="fill:white;fill-rule:nonzero;"/>
            <path d="M63.899,2.959L62.45,2.959L62.45,8.119L61.112,8.119L61.112,2.959L59.662,2.959L59.662,1.937L63.899,1.937L63.899,2.959Z" style="fill:white;fill-rule:nonzero;"/>
            <path d="M65.72,1.937L65.72,3.937L65.739,3.937C65.986,3.539 66.392,3.34 66.955,3.34C67.365,3.34 67.679,3.444 67.899,3.652C68.119,3.859 68.228,4.197 68.228,4.664L68.228,8.118L66.946,8.118L66.946,4.907C66.946,4.664 66.903,4.495 66.816,4.4C66.729,4.305 66.59,4.258 66.398,4.258C65.946,4.258 65.72,4.514 65.72,5.028L65.72,8.119L64.438,8.119L64.438,1.937L65.72,1.937L65.72,1.937Z" style="fill:white;fill-rule:nonzero;"/>
            <path d="M70.411,1.869L70.411,2.89L69.129,2.89L69.129,1.869L70.411,1.869ZM70.411,3.461L70.411,8.119L69.129,8.119L69.129,3.461L70.411,3.461Z" style="fill:white;fill-rule:nonzero;"/>
            <path d="M72.539,3.461L72.539,4.007L72.558,4.007C72.694,3.776 72.87,3.607 73.087,3.5C73.304,3.394 73.552,3.34 73.83,3.34C74.24,3.34 74.554,3.444 74.774,3.652C74.994,3.859 75.103,4.197 75.103,4.664L75.103,8.119L73.821,8.119L73.821,4.907C73.821,4.664 73.778,4.496 73.691,4.4C73.604,4.305 73.465,4.258 73.273,4.258C72.821,4.258 72.595,4.515 72.595,5.028L72.595,8.119L71.313,8.119L71.313,3.461L72.539,3.461L72.539,3.461Z" style="fill:white;fill-rule:nonzero;"/>
            <path d="M79.702,7.885C79.702,8.485 79.542,8.935 79.223,9.235C78.905,9.535 78.37,9.685 77.621,9.685C77.076,9.685 76.656,9.577 76.362,9.361C76.068,9.144 75.921,8.837 75.921,8.439L77.147,8.439C77.147,8.589 77.212,8.707 77.342,8.794C77.404,8.834 77.471,8.866 77.542,8.889C77.613,8.912 77.689,8.924 77.769,8.924C78.03,8.924 78.212,8.846 78.318,8.69C78.423,8.534 78.475,8.341 78.475,8.11L78.475,7.495L78.457,7.495C78.327,7.668 78.167,7.807 77.979,7.911C77.789,8.015 77.593,8.067 77.388,8.067C76.881,8.067 76.498,7.886 76.241,7.526C75.984,7.165 75.856,6.56 75.856,5.712C75.856,5.441 75.873,5.164 75.907,4.881C75.941,4.598 76.012,4.343 76.12,4.115C76.229,3.887 76.386,3.7 76.594,3.556C76.801,3.412 77.079,3.34 77.426,3.34C77.605,3.34 77.791,3.386 77.983,3.478C78.175,3.571 78.333,3.738 78.457,3.98L78.475,3.98L78.475,3.461L79.702,3.461L79.702,7.885L79.702,7.885ZM77.161,6.396C77.177,6.54 77.207,6.668 77.254,6.781C77.301,6.894 77.365,6.983 77.449,7.049C77.532,7.116 77.642,7.149 77.779,7.149C77.915,7.149 78.028,7.116 78.118,7.049C78.208,6.983 78.279,6.893 78.332,6.777C78.384,6.662 78.421,6.521 78.443,6.357C78.465,6.192 78.475,6.012 78.475,5.816C78.475,5.25 78.427,4.849 78.332,4.613C78.236,4.376 78.061,4.258 77.807,4.258C77.664,4.258 77.55,4.287 77.463,4.344C77.376,4.402 77.308,4.496 77.258,4.625C77.209,4.755 77.176,4.929 77.161,5.145C77.145,5.361 77.138,5.625 77.138,5.937C77.138,6.098 77.145,6.252 77.161,6.396L77.161,6.396Z" style="fill:white;fill-rule:nonzero;"/>
            <path d="M84.328,1.937L85.276,6.301L85.295,6.301L86.252,1.937L88.23,1.937L88.23,8.119L87.004,8.119L87.004,3.184L86.986,3.184L85.805,8.119L84.765,8.119L83.585,3.184L83.567,3.184L83.567,8.119L82.34,8.119L82.34,1.937L84.328,1.937Z" style="fill:white;fill-rule:nonzero;"/>
            <path d="M89.085,4.734C89.153,4.428 89.265,4.173 89.42,3.968C89.575,3.763 89.778,3.607 90.028,3.5C90.279,3.393 90.587,3.34 90.952,3.34C91.337,3.334 91.656,3.382 91.909,3.483C92.163,3.584 92.365,3.738 92.513,3.946C92.662,4.154 92.767,4.411 92.829,4.716C92.891,5.022 92.922,5.38 92.922,5.79C92.922,6.188 92.888,6.54 92.82,6.846C92.752,7.152 92.64,7.407 92.486,7.612C92.331,7.817 92.128,7.969 91.877,8.067C91.626,8.164 91.318,8.214 90.952,8.214C90.569,8.22 90.25,8.175 89.996,8.079C89.741,7.984 89.54,7.834 89.392,7.629C89.243,7.425 89.138,7.168 89.076,6.859C89.014,6.55 88.983,6.194 88.983,5.79C88.983,5.392 89.017,5.04 89.085,4.734ZM90.284,6.448C90.296,6.65 90.326,6.823 90.372,6.967C90.418,7.112 90.488,7.224 90.581,7.305C90.674,7.386 90.798,7.426 90.953,7.426C91.213,7.426 91.392,7.299 91.492,7.045C91.591,6.791 91.64,6.373 91.64,5.79C91.64,5.207 91.591,4.788 91.492,4.534C91.393,4.281 91.213,4.154 90.953,4.154C90.798,4.154 90.674,4.194 90.581,4.275C90.488,4.356 90.418,4.468 90.372,4.613C90.326,4.757 90.296,4.93 90.284,5.132C90.271,5.334 90.265,5.553 90.265,5.79C90.265,6.027 90.271,6.246 90.284,6.447L90.284,6.448Z" style="fill:white;fill-rule:nonzero;"/>
            <path d="M96.155,7.625C96.013,7.845 95.853,7.998 95.677,8.084C95.5,8.17 95.282,8.214 95.021,8.214C94.495,8.214 94.108,8.026 93.86,7.651C93.612,7.276 93.489,6.656 93.489,5.79C93.489,4.924 93.612,4.3 93.86,3.915C94.108,3.532 94.495,3.34 95.021,3.34C95.263,3.34 95.469,3.386 95.64,3.478C95.809,3.571 95.963,3.709 96.099,3.894L96.118,3.894L96.118,1.937L97.4,1.937L97.4,8.119L96.174,8.119L96.174,7.625L96.155,7.625L96.155,7.625ZM94.896,6.937C94.98,7.194 95.161,7.322 95.44,7.322C95.724,7.322 95.908,7.194 95.992,6.937C96.076,6.68 96.117,6.298 96.117,5.79C96.117,5.282 96.076,4.9 95.992,4.643C95.908,4.386 95.724,4.258 95.44,4.258C95.161,4.258 94.98,4.386 94.896,4.643C94.812,4.9 94.771,5.282 94.771,5.79C94.771,6.298 94.812,6.68 94.896,6.937Z" style="fill:white;fill-rule:nonzero;"/>
            <path d="M100.801,7.573C100.664,7.804 100.488,7.969 100.271,8.067C100.054,8.165 99.806,8.214 99.528,8.214C99.119,8.214 98.805,8.114 98.585,7.915C98.365,7.716 98.255,7.383 98.255,6.916L98.255,3.462L99.537,3.462L99.537,6.673C99.537,6.916 99.58,7.084 99.667,7.179C99.754,7.274 99.893,7.322 100.085,7.322C100.537,7.322 100.763,7.066 100.763,6.552L100.763,3.462L102.045,3.462L102.045,8.119L100.819,8.119L100.819,7.573L100.8,7.573L100.801,7.573Z" style="fill:white;fill-rule:nonzero;"/>
            <rect x="102.946" y="1.937" width="1.282" height="6.181" style="fill:white;fill-rule:nonzero;"/>
            <path d="M105.12,4.777C105.12,4.506 105.166,4.279 105.26,4.098C105.352,3.915 105.478,3.768 105.636,3.656C105.794,3.543 105.979,3.463 106.193,3.413C106.406,3.365 106.635,3.34 106.876,3.34C107.26,3.34 107.569,3.374 107.805,3.444C108.04,3.513 108.223,3.611 108.353,3.738C108.483,3.865 108.571,4.016 108.618,4.193C108.664,4.369 108.687,4.561 108.687,4.769L108.687,7.218C108.687,7.437 108.698,7.608 108.72,7.729C108.741,7.85 108.783,7.98 108.845,8.119L107.619,8.119C107.576,8.044 107.543,7.964 107.521,7.88C107.499,7.797 107.479,7.715 107.461,7.634L107.442,7.634C107.293,7.876 107.122,8.034 106.927,8.105C106.731,8.178 106.479,8.214 106.169,8.214C105.947,8.214 105.758,8.178 105.603,8.105C105.448,8.034 105.324,7.934 105.231,7.807C105.138,7.68 105.07,7.537 105.027,7.378C104.983,7.22 104.962,7.062 104.962,6.907C104.962,6.687 104.986,6.498 105.036,6.34C105.085,6.181 105.162,6.045 105.264,5.933C105.366,5.82 105.496,5.726 105.654,5.651C105.812,5.577 106.002,5.51 106.225,5.452L106.95,5.271C107.142,5.225 107.275,5.161 107.35,5.08C107.424,4.999 107.461,4.881 107.461,4.725C107.461,4.546 107.416,4.406 107.326,4.305C107.236,4.205 107.083,4.154 106.866,4.154C106.668,4.154 106.519,4.209 106.42,4.318C106.321,4.428 106.272,4.575 106.272,4.76L106.272,4.89L105.12,4.89L105.12,4.777L105.12,4.777ZM107.182,5.941C107.083,5.979 106.993,6.006 106.913,6.024C106.653,6.076 106.467,6.162 106.356,6.283C106.244,6.405 106.188,6.569 106.188,6.777C106.188,6.955 106.225,7.109 106.3,7.236C106.374,7.363 106.498,7.426 106.672,7.426C106.758,7.426 106.848,7.413 106.941,7.387C107.034,7.361 107.119,7.319 107.197,7.262C107.274,7.204 107.337,7.129 107.387,7.036C107.436,6.944 107.461,6.834 107.461,6.707L107.461,5.79C107.374,5.853 107.282,5.904 107.182,5.941Z" style="fill:white;fill-rule:nonzero;"/>
            <path d="M110.825,3.461L110.825,4.084L110.843,4.084C110.973,3.859 111.131,3.679 111.317,3.543C111.503,3.408 111.729,3.34 111.995,3.34C112.032,3.34 112.071,3.342 112.111,3.344C112.151,3.347 112.19,3.351 112.227,3.357L112.227,4.5C112.159,4.495 112.093,4.49 112.028,4.487C111.963,4.484 111.896,4.483 111.828,4.483C111.716,4.483 111.605,4.497 111.493,4.526C111.382,4.555 111.28,4.603 111.187,4.669C111.094,4.735 111.019,4.822 110.964,4.929C110.908,5.036 110.88,5.167 110.88,5.322L110.88,8.119L109.598,8.119L109.598,3.461L110.825,3.461L110.825,3.461Z" style="fill:white;fill-rule:nonzero;"/>
        </g>
        <path d="M92.153,135.584L94.359,131.711L92.272,131.711L92.272,131.095L95.2,131.095L95.2,131.606L92.993,135.479L95.305,135.479L95.305,136.095L92.153,136.095L92.153,135.584L92.153,135.584Z" style="fill:white;fill-rule:nonzero;"/>
        <path d="M16.163,131.095L16.99,131.095L18.033,132.915L19.014,131.095L19.805,131.095L18.418,133.56L19.896,136.095L19.07,136.095L17.921,134.099L16.843,136.095L16.051,136.095L17.536,133.455L16.163,131.095L16.163,131.095Z" style="fill:white;fill-rule:nonzero;"/>
        <path d="M55.237,134.287L53.675,131.094L54.466,131.094L55.615,133.538L56.757,131.094L57.548,131.094L55.986,134.287L55.986,136.095L55.237,136.095L55.237,134.287Z" style="fill:white;fill-rule:nonzero;"/>
        <g>
            <g transform="matrix(-0,-1,1,-0,-289.4789,388.3293)">
                <rect x="47.73" y="337.489" width="3.39" height="2.829" style="fill:white;"/>
            </g>
            <g transform="matrix(-0,-1,1,-0,-285.5883,392.22)">
                <rect x="51.621" y="337.489" width="3.39" height="2.829" style="fill:white;"/>
            </g>
            <g transform="matrix(-0,-1,1,-0,-281.6971,396.1101)">
                <rect x="55.512" y="337.489" width="3.389" height="2.829" style="fill:white;"/>
            </g>
            <g transform="matrix(-0,-1,1,-0,-278.1912,400.3854)">
                <rect x="59.018" y="337.873" width="4.158" height="2.829" style="fill:white;"/>
            </g>
            <g transform="matrix(-0,-1,1,-0,-273.9159,403.8913)">
                <rect x="63.293" y="337.489" width="3.389" height="2.829" style="fill:white;"/>
            </g>
            <g transform="matrix(-0,-1,1,-0,-270.0258,407.7825)">
                <rect x="67.183" y="337.489" width="3.39" height="2.829" style="fill:white;"/>
            </g>
            <g transform="matrix(-0,-1,1,-0,-266.1351,411.6731)">
                <rect x="71.074" y="337.489" width="3.39" height="2.829" style="fill:white;"/>
            </g>
            <g transform="matrix(-0,-1,1,-0,-262.6286,415.9479)">
                <rect x="74.58" y="337.873" width="4.158" height="2.829" style="fill:white;"/>
            </g>
        </g>
        <path d="M70.605,260.834C68.037,260.834 65.947,262.923 65.947,265.491C65.947,268.059 68.037,270.148 70.605,270.148C73.172,270.148 75.262,268.059 75.262,265.491C75.262,262.923 73.172,260.834 70.605,260.834ZM72.866,266.468L70.87,268.465C70.796,268.538 70.701,268.575 70.605,268.575C70.508,268.575 70.413,268.538 70.339,268.465L68.343,266.468C68.196,266.322 68.196,266.084 68.343,265.938C68.489,265.791 68.727,265.791 68.873,265.938L70.204,267.269L70.204,262.783C70.204,262.576 70.372,262.408 70.579,262.408C70.786,262.408 70.954,262.576 70.954,262.783L70.954,267.32L72.336,265.938C72.483,265.792 72.72,265.792 72.866,265.938C73.013,266.085 73.013,266.322 72.866,266.468L72.866,266.468Z" style="fill:white;fill-rule:nonzero;"/>
        <path d="M98.979,260.834C96.411,260.834 94.322,262.923 94.322,265.491C94.322,268.059 96.411,270.148 98.979,270.148C101.547,270.148 103.636,268.059 103.636,265.491C103.636,262.923 101.547,260.834 98.979,260.834ZM101.241,266.468L99.244,268.465C99.171,268.538 99.076,268.575 98.979,268.575C98.883,268.575 98.787,268.538 98.714,268.465L96.718,266.468C96.571,266.322 96.571,266.084 96.718,265.938C96.864,265.791 97.101,265.791 97.248,265.938L98.578,267.269L98.578,262.783C98.578,262.576 98.746,262.408 98.953,262.408C99.16,262.408 99.328,262.576 99.328,262.783L99.328,267.32L100.711,265.938C100.857,265.792 101.095,265.792 101.241,265.938C101.388,266.085 101.388,266.322 101.241,266.468L101.241,266.468Z" style="fill:white;fill-rule:nonzero;"/>
        <path d="M70.605,222.902C68.037,222.902 65.947,224.991 65.947,227.559C65.947,230.127 68.037,232.216 70.605,232.216C73.172,232.216 75.262,230.127 75.262,227.559C75.262,224.991 73.172,222.902 70.605,222.902ZM72.866,228.536L70.87,230.533C70.796,230.606 70.701,230.643 70.605,230.643C70.508,230.643 70.413,230.606 70.339,230.533L68.343,228.536C68.196,228.39 68.196,228.152 68.343,228.006C68.489,227.859 68.727,227.859 68.873,228.006L70.204,229.336L70.204,224.851C70.204,224.644 70.372,224.476 70.579,224.476C70.786,224.476 70.954,224.644 70.954,224.851L70.954,229.388L72.336,228.006C72.483,227.859 72.72,227.859 72.866,228.006C73.013,228.152 73.013,228.39 72.866,228.536L72.866,228.536Z" style="fill:white;fill-rule:nonzero;"/>
        <path d="M98.979,222.902C96.411,222.902 94.322,224.991 94.322,227.559C94.322,230.127 96.411,232.216 98.979,232.216C101.547,232.216 103.636,230.127 103.636,227.559C103.636,224.991 101.547,222.902 98.979,222.902ZM101.241,228.536L99.244,230.533C99.171,230.606 99.076,230.643 98.979,230.643C98.883,230.643 98.787,230.606 98.714,230.533L96.718,228.536C96.571,228.39 96.571,228.152 96.718,228.006C96.864,227.859 97.101,227.859 97.248,228.006L98.578,229.336L98.578,224.851C98.578,224.644 98.746,224.476 98.953,224.476C99.16,224.476 99.328,224.644 99.328,224.851L99.328,229.388L100.711,228.006C100.857,227.859 101.095,227.859 101.241,228.006C101.388,228.152 101.388,228.39 101.241,228.536L101.241,228.536Z" style="fill:white;fill-rule:nonzero;"/>
        <path d="M70.605,183.327C68.037,183.327 65.947,185.416 65.947,187.984C65.947,190.552 68.037,192.641 70.605,192.641C73.172,192.641 75.262,190.552 75.262,187.984C75.262,185.416 73.172,183.327 70.605,183.327ZM72.866,188.961L70.87,190.958C70.796,191.031 70.701,191.067 70.605,191.067C70.508,191.067 70.413,191.031 70.339,190.958L68.343,188.961C68.196,188.814 68.196,188.577 68.343,188.431C68.489,188.284 68.727,188.284 68.873,188.431L70.204,189.761L70.204,185.275C70.204,185.068 70.372,184.9 70.579,184.9C70.786,184.9 70.954,185.068 70.954,185.275L70.954,189.813L72.336,188.431C72.483,188.284 72.72,188.284 72.866,188.431C73.013,188.577 73.013,188.815 72.866,188.961L72.866,188.961Z" style="fill:white;fill-rule:nonzero;"/>
        <path d="M98.979,183.327C96.411,183.327 94.322,185.416 94.322,187.984C94.322,190.552 96.411,192.641 98.979,192.641C101.547,192.641 103.636,190.552 103.636,187.984C103.636,185.416 101.547,183.327 98.979,183.327ZM101.241,188.961L99.244,190.958C99.171,191.031 99.076,191.067 98.979,191.067C98.883,191.067 98.787,191.031 98.714,190.958L96.718,188.961C96.571,188.814 96.571,188.577 96.718,188.431C96.864,188.284 97.101,188.284 97.248,188.431L98.578,189.761L98.578,185.275C98.578,185.068 98.746,184.9 98.953,184.9C99.16,184.9 99.328,185.068 99.328,185.275L99.328,189.813L100.711,188.431C100.857,188.284 101.095,188.284 101.241,188.431C101.388,188.577 101.388,188.815 101.241,188.961L101.241,188.961Z" style="fill:white;fill-rule:nonzero;"/>
        <g>
            <path d="M10.014,264.493L12.01,262.496L14.007,264.493" style="fill:none;fill-rule:nonzero;stroke:white;stroke-width:0.75px;"/>
            <g>
                <path d="M12.036,262.937L12.036,267.913" style="fill:none;fill-rule:nonzero;stroke:white;stroke-width:0.75px;"/>
                <circle cx="12.01" cy="265.205" r="4.907" style="fill:none;stroke:white;stroke-width:0.5px;stroke-linecap:butt;stroke-linejoin:miter;stroke-miterlimit:10;"/>
            </g>
        </g>
        <g>
            <g>
                <path d="M39.899,262.937L39.899,267.913" style="fill:none;fill-rule:nonzero;stroke:white;stroke-width:0.5px;stroke-linecap:butt;stroke-linejoin:miter;stroke-miterlimit:10;"/>
                <path d="M37.877,264.493L39.873,262.496L41.87,264.493" style="fill:none;fill-rule:nonzero;stroke:white;stroke-width:0.75px;"/>
            </g>
            <circle cx="39.873" cy="265.205" r="4.907" style="fill:none;stroke:white;stroke-width:0.5px;stroke-linecap:butt;stroke-linejoin:miter;stroke-miterlimit:10;"/>
        </g>
        <g>
            <path d="M10.014,226.561L12.01,224.564L14.007,226.561" style="fill:none;fill-rule:nonzero;stroke:white;stroke-width:0.75px;"/>
            <g>
                <path d="M12.036,225.005L12.036,229.981" style="fill:none;fill-rule:nonzero;stroke:white;stroke-width:0.75px;"/>
                <circle cx="12.01" cy="227.273" r="4.907" style="fill:none;stroke:white;stroke-width:0.5px;stroke-linecap:butt;stroke-linejoin:miter;stroke-miterlimit:10;"/>
            </g>
        </g>
        <g>
            <g>
                <path d="M39.899,225.005L39.899,229.981" style="fill:none;fill-rule:nonzero;stroke:white;stroke-width:0.75px;"/>
                <path d="M37.877,226.561L39.873,224.564L41.87,226.561" style="fill:none;fill-rule:nonzero;stroke:white;stroke-width:0.75px;"/>
            </g>
            <circle cx="39.873" cy="227.273" r="4.907" style="fill:none;stroke:white;stroke-width:0.5px;stroke-linecap:butt;stroke-linejoin:miter;stroke-miterlimit:10;"/>
        </g>
        <g>
            <path d="M10.014,186.986L12.01,184.989L14.007,186.986" style="fill:none;fill-rule:nonzero;stroke:white;stroke-width:0.75px;"/>
            <g>
                <path d="M12.036,185.43L12.036,190.406" style="fill:none;fill-rule:nonzero;stroke:white;stroke-width:0.75px;"/>
                <circle cx="12.01" cy="187.698" r="4.907" style="fill:none;stroke:white;stroke-width:0.5px;"/>
            </g>
        </g>
        <g>
            <g>
                <path d="M39.899,185.43L39.899,190.406" style="fill:none;fill-rule:nonzero;stroke:white;stroke-width:0.75px;"/>
                <path d="M37.877,186.986L39.873,184.989L41.87,186.986" style="fill:none;fill-rule:nonzero;stroke:white;stroke-width:0.75px;"/>
            </g>
            <circle cx="39.873" cy="187.698" r="4.907" style="fill:none;stroke:white;stroke-width:0.5px;stroke-linecap:butt;stroke-linejoin:miter;stroke-miterlimit:10;"/>
        </g>
        <g>
            <path d="M26.416,26.177L28.293,28.054" style="fill:none;fill-rule:nonzero;stroke:white;stroke-width:0.5px;stroke-linecap:butt;stroke-linejoin:miter;stroke-miterlimit:10;"/>
            <path d="M83.219,27.725L84.915,26.029" style="fill:none;fill-rule:nonzero;stroke:white;stroke-width:0.5px;stroke-linecap:butt;stroke-linejoin:miter;stroke-miterlimit:10;"/>
            <path d="M26.466,84.37L28.162,82.674" style="fill:none;fill-rule:nonzero;stroke:white;stroke-width:0.5px;stroke-linecap:butt;stroke-linejoin:miter;stroke-miterlimit:10;"/>
            <path d="M35.29,91.268C22.772,84.157 14.327,70.703 14.327,55.276C14.327,32.431 32.847,13.912 55.692,13.912C78.536,13.912 97.056,32.431 97.056,55.276C97.056,70.462 88.873,83.736 76.677,90.93" style="fill:none;fill-rule:nonzero;stroke:white;stroke-width:0.5px;stroke-linecap:butt;stroke-linejoin:miter;stroke-miterlimit:10;"/>
            <path d="M55.691,16.322L55.691,13.912" style="fill:none;fill-rule:nonzero;stroke:white;stroke-width:0.5px;stroke-linecap:butt;stroke-linejoin:miter;stroke-miterlimit:10;"/>
            <path d="M14.327,55.276L17.171,55.276" style="fill:none;fill-rule:nonzero;stroke:white;stroke-width:0.5px;stroke-linecap:butt;stroke-linejoin:miter;stroke-miterlimit:10;"/>
            <path d="M94.565,55.276L97.056,55.276" style="fill:none;fill-rule:nonzero;stroke:white;stroke-width:0.5px;stroke-linecap:butt;stroke-linejoin:miter;stroke-miterlimit:10;"/>
            <path d="M82.925,82.675L84.802,84.552" style="fill:none;fill-rule:nonzero;stroke:white;stroke-width:0.5px;stroke-linecap:butt;stroke-linejoin:miter;stroke-miterlimit:10;"/>
            <path d="M34.1,93.421L35.378,91.171" style="fill:none;fill-rule:nonzero;stroke:white;stroke-width:0.5px;stroke-linecap:butt;stroke-linejoin:miter;stroke-miterlimit:10;"/>
            <path d="M77.889,93.2L76.515,90.883" style="fill:none;fill-rule:nonzero;stroke:white;stroke-width:0.5px;stroke-linecap:butt;stroke-linejoin:miter;stroke-miterlimit:10;"/>
        </g>
        <g>
            <path d="M46.671,127.261C44.423,124.988 43.035,121.862 43.035,118.413C43.035,111.462 48.67,105.827 55.621,105.827C62.572,105.827 68.207,111.462 68.207,118.413C68.207,121.848 66.831,124.962 64.6,127.233" style="fill:none;fill-rule:nonzero;stroke:white;stroke-width:0.5px;stroke-linecap:butt;stroke-linejoin:miter;stroke-miterlimit:10;"/>
            <path d="M43.035,118.314L44.761,118.314" style="fill:none;fill-rule:nonzero;stroke:white;stroke-width:0.5px;stroke-linecap:butt;stroke-linejoin:miter;stroke-miterlimit:10;"/>
            <path d="M46.788,109.421L48.018,110.652" style="fill:none;fill-rule:nonzero;stroke:white;stroke-width:0.5px;stroke-linecap:butt;stroke-linejoin:miter;stroke-miterlimit:10;"/>
            <path d="M66.481,118.314L68.185,118.314" style="fill:none;fill-rule:nonzero;stroke:white;stroke-width:0.5px;stroke-linecap:butt;stroke-linejoin:miter;stroke-miterlimit:10;"/>
            <path d="M63.248,110.674L64.465,109.457" style="fill:none;fill-rule:nonzero;stroke:white;stroke-width:0.5px;stroke-linecap:butt;stroke-linejoin:miter;stroke-miterlimit:10;"/>
            <path d="M46.562,127.37L47.906,126.016" style="fill:none;fill-rule:nonzero;stroke:white;stroke-width:0.5px;stroke-linecap:butt;stroke-linejoin:miter;stroke-miterlimit:10;"/>
            <path d="M55.678,107.545L55.678,105.827" style="fill:none;fill-rule:nonzero;stroke:white;stroke-width:0.5px;stroke-linecap:butt;stroke-linejoin:miter;stroke-miterlimit:10;"/>
            <path d="M63.37,126.013L64.701,127.341" style="fill:none;fill-rule:nonzero;stroke:white;stroke-width:0.5px;stroke-linecap:butt;stroke-linejoin:miter;stroke-miterlimit:10;"/>
        </g>
        <g>
            <path d="M8.945,127.261C6.697,124.988 5.309,121.862 5.309,118.413C5.309,111.462 10.944,105.827 17.895,105.827C24.846,105.827 30.481,111.462 30.481,118.413C30.481,121.848 29.105,124.962 26.873,127.233" style="fill:none;fill-rule:nonzero;stroke:white;stroke-width:0.5px;stroke-linecap:butt;stroke-linejoin:miter;stroke-miterlimit:10;"/>
            <path d="M5.309,118.314L7.035,118.314" style="fill:none;fill-rule:nonzero;stroke:white;stroke-width:0.5px;stroke-linecap:butt;stroke-linejoin:miter;stroke-miterlimit:10;"/>
            <path d="M9.062,109.421L10.292,110.652" style="fill:none;fill-rule:nonzero;stroke:white;stroke-width:0.5px;stroke-linecap:butt;stroke-linejoin:miter;stroke-miterlimit:10;"/>
            <path d="M28.755,118.314L30.459,118.314" style="fill:none;fill-rule:nonzero;stroke:white;stroke-width:0.5px;stroke-linecap:butt;stroke-linejoin:miter;stroke-miterlimit:10;"/>
            <path d="M25.522,110.674L26.739,109.457" style="fill:none;fill-rule:nonzero;stroke:white;stroke-width:0.5px;stroke-linecap:butt;stroke-linejoin:miter;stroke-miterlimit:10;"/>
            <path d="M8.836,127.37L10.18,126.016" style="fill:none;fill-rule:nonzero;stroke:white;stroke-width:0.5px;stroke-linecap:butt;stroke-linejoin:miter;stroke-miterlimit:10;"/>
            <path d="M17.951,107.545L17.951,105.827" style="fill:none;fill-rule:nonzero;stroke:white;stroke-width:0.5px;stroke-linecap:butt;stroke-linejoin:miter;stroke-miterlimit:10;"/>
            <path d="M25.644,126.013L26.975,127.341" style="fill:none;fill-rule:nonzero;stroke:white;stroke-width:0.5px;stroke-linecap:butt;stroke-linejoin:miter;stroke-miterlimit:10;"/>
        </g>
        <g>
            <path d="M49.585,342.845L50.517,348.653L50.541,348.653L51.532,342.845L53.161,342.845L54.153,348.653L54.177,348.653L55.11,342.845L56.738,342.845L55.204,350.699L53.303,350.699L52.359,345L52.335,345L51.391,350.699L49.49,350.699L47.955,342.845L49.585,342.845Z" style="fill:white;fill-rule:nonzero;"/>
            <path d="M56.904,346.398C56.99,346.009 57.132,345.685 57.328,345.424C57.525,345.164 57.783,344.966 58.102,344.83C58.421,344.695 58.812,344.627 59.276,344.627C59.764,344.62 60.17,344.68 60.492,344.808C60.815,344.937 61.07,345.133 61.259,345.397C61.448,345.661 61.582,345.987 61.661,346.376C61.739,346.765 61.779,347.219 61.779,347.74C61.779,348.246 61.736,348.694 61.649,349.082C61.562,349.471 61.421,349.795 61.224,350.055C61.028,350.316 60.77,350.508 60.451,350.633C60.132,350.757 59.741,350.82 59.276,350.82C58.788,350.827 58.383,350.77 58.06,350.65C57.738,350.528 57.482,350.338 57.293,350.077C57.104,349.817 56.971,349.491 56.892,349.098C56.813,348.706 56.774,348.253 56.774,347.74C56.774,347.234 56.817,346.787 56.904,346.398L56.904,346.398ZM58.426,348.576C58.442,348.832 58.48,349.053 58.538,349.236C58.597,349.419 58.686,349.562 58.804,349.664C58.922,349.767 59.079,349.819 59.276,349.819C59.607,349.819 59.835,349.658 59.961,349.335C60.087,349.012 60.15,348.48 60.15,347.74C60.15,346.999 60.087,346.467 59.961,346.144C59.835,345.822 59.607,345.661 59.276,345.661C59.079,345.661 58.922,345.712 58.804,345.815C58.686,345.917 58.597,346.06 58.538,346.244C58.48,346.427 58.442,346.647 58.426,346.904C58.41,347.161 58.403,347.439 58.403,347.74C58.403,348.04 58.41,348.319 58.426,348.576Z" style="fill:white;fill-rule:nonzero;"/>
            <path d="M64.034,344.781L64.034,345.573L64.057,345.573C64.222,345.287 64.423,345.058 64.659,344.885C64.895,344.713 65.183,344.627 65.521,344.627C65.568,344.627 65.617,344.628 65.669,344.632C65.72,344.636 65.769,344.642 65.816,344.649L65.816,346.101C65.73,346.094 65.645,346.088 65.562,346.084C65.48,346.081 65.395,346.079 65.309,346.079C65.167,346.079 65.025,346.097 64.884,346.134C64.742,346.17 64.612,346.231 64.494,346.315C64.376,346.399 64.282,346.51 64.211,346.645C64.14,346.781 64.105,346.948 64.105,347.146L64.105,350.699L62.475,350.699L62.475,344.781L64.034,344.781L64.034,344.781Z" style="fill:white;fill-rule:nonzero;"/>
            <path d="M68.094,346.992L68.118,346.992L69.759,344.781L71.553,344.781L69.724,347.113L71.825,350.699L70.031,350.699L68.673,348.267L68.095,348.971L68.095,350.699L66.466,350.699L66.466,342.845L68.095,342.845L68.095,346.992Z" style="fill:white;fill-rule:nonzero;"/>
            <path d="M73.502,348.961C73.502,349.217 73.575,349.425 73.72,349.582C73.865,349.74 74.076,349.819 74.352,349.819C74.603,349.819 74.804,349.76 74.954,349.642C75.103,349.525 75.178,349.349 75.178,349.115C75.178,348.924 75.119,348.779 75.001,348.68C74.883,348.581 74.745,348.502 74.588,348.444L73.443,348.058C72.994,347.912 72.656,347.705 72.428,347.437C72.199,347.169 72.085,346.826 72.085,346.409C72.085,346.166 72.128,345.937 72.215,345.721C72.302,345.505 72.439,345.316 72.628,345.155C72.817,344.994 73.059,344.865 73.354,344.769C73.649,344.674 74.005,344.627 74.423,344.627C75.163,344.627 75.709,344.773 76.063,345.067C76.418,345.36 76.595,345.774 76.595,346.309L76.595,346.552L75.131,346.552C75.131,346.244 75.078,346.018 74.972,345.875C74.865,345.732 74.678,345.66 74.411,345.66C74.206,345.66 74.027,345.714 73.874,345.82C73.72,345.927 73.643,346.086 73.643,346.299C73.643,346.445 73.693,346.577 73.791,346.695C73.89,346.812 74.076,346.911 74.352,346.992L75.331,347.3C75.843,347.461 76.205,347.672 76.418,347.932C76.63,348.192 76.736,348.546 76.736,348.993C76.736,349.309 76.678,349.582 76.559,349.813C76.441,350.044 76.278,350.237 76.069,350.39C75.861,350.545 75.613,350.655 75.326,350.72C75.038,350.786 74.722,350.82 74.375,350.82C73.919,350.82 73.539,350.779 73.236,350.698C72.933,350.618 72.693,350.497 72.516,350.336C72.339,350.174 72.215,349.978 72.144,349.747C72.073,349.516 72.038,349.257 72.038,348.971L72.038,348.762L73.502,348.762L73.502,348.961L73.502,348.961Z" style="fill:white;fill-rule:nonzero;"/>
            <path d="M79.18,342.845L79.18,345.386L79.203,345.386C79.518,344.88 80.034,344.627 80.75,344.627C81.269,344.627 81.669,344.759 81.948,345.023C82.227,345.287 82.367,345.716 82.367,346.31L82.367,350.699L80.738,350.699L80.738,346.618C80.738,346.31 80.683,346.095 80.573,345.974C80.462,345.853 80.285,345.793 80.041,345.793C79.467,345.793 79.18,346.119 79.18,346.772L79.18,350.699L77.551,350.699L77.551,342.845L79.18,342.845Z" style="fill:white;fill-rule:nonzero;"/>
            <path d="M83.37,346.398C83.457,346.009 83.598,345.685 83.795,345.424C83.992,345.164 84.25,344.966 84.569,344.83C84.887,344.695 85.279,344.627 85.743,344.627C86.231,344.62 86.637,344.68 86.959,344.808C87.282,344.937 87.537,345.133 87.726,345.397C87.915,345.661 88.049,345.987 88.128,346.376C88.206,346.765 88.246,347.219 88.246,347.74C88.246,348.246 88.202,348.694 88.116,349.082C88.029,349.471 87.888,349.795 87.691,350.055C87.494,350.316 87.237,350.508 86.918,350.633C86.599,350.757 86.207,350.82 85.743,350.82C85.255,350.827 84.85,350.77 84.527,350.65C84.204,350.528 83.949,350.338 83.76,350.077C83.571,349.817 83.437,349.491 83.359,349.098C83.28,348.706 83.24,348.253 83.24,347.74C83.24,347.234 83.284,346.787 83.37,346.398L83.37,346.398ZM84.893,348.576C84.909,348.832 84.947,349.053 85.005,349.236C85.064,349.419 85.153,349.562 85.271,349.664C85.389,349.767 85.546,349.819 85.743,349.819C86.074,349.819 86.302,349.658 86.428,349.335C86.554,349.012 86.617,348.48 86.617,347.74C86.617,346.999 86.553,346.467 86.428,346.144C86.302,345.822 86.074,345.661 85.743,345.661C85.546,345.661 85.389,345.712 85.271,345.815C85.153,345.917 85.064,346.06 85.005,346.244C84.947,346.427 84.909,346.647 84.893,346.904C84.877,347.161 84.869,347.439 84.869,347.74C84.869,348.04 84.877,348.319 84.893,348.576Z" style="fill:white;fill-rule:nonzero;"/>
            <path d="M90.677,344.781L90.677,345.408L90.701,345.408C90.882,345.129 91.085,344.929 91.309,344.808C91.533,344.687 91.811,344.627 92.141,344.627C92.81,344.627 93.302,344.871 93.617,345.358C93.932,345.846 94.09,346.64 94.09,347.74C94.09,348.84 93.932,349.628 93.617,350.104C93.302,350.581 92.81,350.82 92.141,350.82C91.835,350.82 91.573,350.766 91.357,350.66C91.14,350.554 90.945,350.383 90.772,350.149L90.749,350.149L90.749,352.601L89.119,352.601L89.119,344.781L90.677,344.781L90.677,344.781ZM90.908,349.197C91.014,349.523 91.248,349.687 91.61,349.687C91.965,349.687 92.195,349.523 92.301,349.197C92.407,348.871 92.46,348.385 92.46,347.74C92.46,347.095 92.407,346.608 92.301,346.282C92.195,345.956 91.965,345.793 91.61,345.793C91.248,345.793 91.014,345.956 90.908,346.282C90.802,346.608 90.749,347.095 90.749,347.74C90.749,348.385 90.802,348.871 90.908,349.197Z" style="fill:white;fill-rule:nonzero;"/>
            <path d="M51.834,353.247C51.688,352.987 51.422,352.857 51.037,352.857C50.824,352.857 50.649,352.91 50.511,353.016C50.374,353.123 50.265,353.295 50.187,353.533C50.108,353.772 50.053,354.083 50.021,354.468C49.99,354.853 49.974,355.325 49.974,355.882C49.974,356.476 49.996,356.956 50.039,357.323C50.082,357.689 50.149,357.974 50.24,358.175C50.33,358.377 50.445,358.513 50.582,358.582C50.72,358.652 50.879,358.686 51.06,358.686C51.21,358.686 51.349,358.663 51.479,358.615C51.609,358.567 51.721,358.472 51.816,358.329C51.91,358.186 51.985,357.985 52.04,357.724C52.095,357.464 52.123,357.121 52.123,356.696L53.822,356.696C53.822,357.121 53.787,357.524 53.716,357.906C53.646,358.287 53.514,358.621 53.321,358.907C53.128,359.193 52.857,359.417 52.506,359.578C52.156,359.739 51.701,359.82 51.143,359.82C50.505,359.82 49.998,359.724 49.62,359.534C49.242,359.343 48.953,359.068 48.752,358.709C48.551,358.35 48.421,357.921 48.363,357.422C48.304,356.923 48.274,356.373 48.274,355.772C48.274,355.178 48.304,354.629 48.363,354.128C48.421,353.625 48.551,353.194 48.752,352.835C48.953,352.476 49.242,352.195 49.62,351.993C49.998,351.792 50.505,351.691 51.143,351.691C51.749,351.691 52.227,351.783 52.577,351.966C52.927,352.149 53.189,352.382 53.362,352.664C53.535,352.947 53.643,353.251 53.687,353.577C53.73,353.904 53.752,354.21 53.752,354.496L52.052,354.496C52.052,353.924 51.979,353.508 51.834,353.247L51.834,353.247Z" style="fill:white;fill-rule:nonzero;"/>
            <path d="M54.72,355.398C54.806,355.009 54.948,354.685 55.145,354.424C55.342,354.164 55.599,353.966 55.918,353.83C56.237,353.695 56.628,353.627 57.093,353.627C57.581,353.62 57.986,353.68 58.309,353.808C58.631,353.937 58.887,354.133 59.076,354.397C59.265,354.661 59.399,354.987 59.477,355.376C59.556,355.765 59.596,356.219 59.596,356.74C59.596,357.246 59.552,357.694 59.466,358.082C59.379,358.471 59.237,358.795 59.041,359.055C58.844,359.316 58.586,359.508 58.267,359.633C57.949,359.757 57.557,359.82 57.093,359.82C56.605,359.827 56.2,359.77 55.877,359.65C55.554,359.528 55.299,359.338 55.11,359.077C54.921,358.817 54.787,358.491 54.708,358.098C54.629,357.706 54.59,357.253 54.59,356.74C54.59,356.234 54.633,355.787 54.72,355.398L54.72,355.398ZM56.243,357.576C56.259,357.832 56.296,358.053 56.355,358.236C56.414,358.419 56.503,358.562 56.62,358.664C56.739,358.767 56.896,358.819 57.093,358.819C57.423,358.819 57.652,358.658 57.778,358.335C57.903,358.012 57.967,357.48 57.967,356.74C57.967,355.999 57.903,355.467 57.778,355.144C57.652,354.822 57.423,354.661 57.093,354.661C56.896,354.661 56.739,354.712 56.62,354.815C56.503,354.917 56.414,355.06 56.355,355.244C56.296,355.427 56.259,355.647 56.243,355.904C56.227,356.161 56.219,356.439 56.219,356.74C56.219,357.04 56.227,357.319 56.243,357.576Z" style="fill:white;fill-rule:nonzero;"/>
            <path d="M61.908,353.781L61.908,354.386L61.932,354.386C62.137,354.115 62.367,353.92 62.623,353.803C62.879,353.685 63.184,353.627 63.538,353.627C63.916,353.627 64.232,353.708 64.488,353.869C64.744,354.03 64.915,354.265 65.002,354.573L65.025,354.573C65.151,354.257 65.354,354.021 65.633,353.863C65.912,353.706 66.245,353.627 66.631,353.627C67.174,353.627 67.573,353.779 67.829,354.083C68.085,354.388 68.213,354.826 68.213,355.398L68.213,359.699L66.583,359.699L66.583,355.562C66.583,355.313 66.534,355.123 66.436,354.991C66.338,354.859 66.174,354.793 65.946,354.793C65.686,354.793 65.48,354.874 65.326,355.035C65.173,355.196 65.096,355.453 65.096,355.805L65.096,359.699L63.467,359.699L63.467,355.562C63.467,355.313 63.418,355.123 63.319,354.991C63.221,354.859 63.058,354.793 62.829,354.793C62.569,354.793 62.363,354.873 62.21,355.035C62.056,355.196 61.98,355.453 61.98,355.805L61.98,359.699L60.35,359.699L60.35,353.781L61.908,353.781L61.908,353.781Z" style="fill:white;fill-rule:nonzero;"/>
            <path d="M70.739,353.781L70.739,354.408L70.763,354.408C70.944,354.129 71.147,353.929 71.371,353.808C71.595,353.687 71.872,353.627 72.203,353.627C72.872,353.627 73.364,353.871 73.679,354.358C73.993,354.846 74.151,355.64 74.151,356.74C74.151,357.84 73.993,358.628 73.679,359.104C73.364,359.581 72.872,359.82 72.203,359.82C71.896,359.82 71.634,359.766 71.418,359.66C71.201,359.554 71.006,359.383 70.834,359.149L70.81,359.149L70.81,361.601L69.181,361.601L69.181,353.781L70.739,353.781L70.739,353.781ZM70.969,358.197C71.076,358.523 71.31,358.687 71.672,358.687C72.026,358.687 72.256,358.523 72.362,358.197C72.468,357.871 72.522,357.385 72.522,356.74C72.522,356.095 72.468,355.608 72.362,355.282C72.256,354.956 72.026,354.793 71.672,354.793C71.31,354.793 71.076,354.956 70.969,355.282C70.863,355.608 70.81,356.095 70.81,356.74C70.81,357.385 70.863,357.871 70.969,358.197Z" style="fill:white;fill-rule:nonzero;"/>
            <path d="M78.2,359.006C78.027,359.299 77.803,359.508 77.527,359.633C77.251,359.757 76.937,359.82 76.582,359.82C76.063,359.82 75.663,359.693 75.384,359.44C75.105,359.187 74.965,358.764 74.965,358.17L74.965,353.781L76.595,353.781L76.595,357.862C76.595,358.17 76.649,358.384 76.76,358.505C76.87,358.627 77.047,358.687 77.291,358.687C77.865,358.687 78.153,358.36 78.153,357.708L78.153,353.781L79.782,353.781L79.782,359.699L78.223,359.699L78.223,359.006L78.2,359.006L78.2,359.006Z" style="fill:white;fill-rule:nonzero;"/>
            <path d="M82.851,352.087L82.851,353.781L83.796,353.781L83.796,354.815L82.851,354.815L82.851,358.015C82.851,358.25 82.888,358.417 82.964,358.516C83.038,358.615 83.194,358.664 83.43,358.664C83.493,358.664 83.556,358.663 83.619,358.659C83.682,358.656 83.741,358.65 83.796,358.642L83.796,359.699C83.615,359.699 83.44,359.704 83.27,359.715C83.101,359.726 82.922,359.732 82.733,359.732C82.418,359.732 82.16,359.711 81.96,359.671C81.759,359.631 81.606,359.55 81.5,359.429C81.393,359.308 81.321,359.149 81.281,358.951C81.241,358.753 81.222,358.503 81.222,358.203L81.222,354.815L80.396,354.815L80.396,353.781L81.222,353.781L81.222,352.087L82.851,352.087L82.851,352.087Z" style="fill:white;fill-rule:nonzero;"/>
            <path d="M85.755,357.444C85.755,357.62 85.769,357.79 85.797,357.955C85.824,358.12 85.869,358.267 85.932,358.395C85.995,358.523 86.078,358.626 86.18,358.703C86.283,358.78 86.409,358.819 86.558,358.819C86.833,358.819 87.034,358.727 87.16,358.544C87.286,358.36 87.372,358.081 87.42,357.707L88.884,357.707C88.852,358.397 88.655,358.921 88.293,359.281C87.931,359.64 87.361,359.82 86.581,359.82C85.992,359.82 85.531,359.728 85.201,359.545C84.87,359.361 84.626,359.12 84.469,358.819C84.311,358.518 84.215,358.181 84.179,357.807C84.144,357.433 84.126,357.059 84.126,356.684C84.126,356.288 84.156,355.908 84.215,355.54C84.274,355.174 84.392,354.848 84.569,354.561C84.746,354.276 85,354.048 85.331,353.88C85.661,353.711 86.102,353.627 86.652,353.627C87.125,353.627 87.512,353.698 87.815,353.841C88.118,353.984 88.356,354.186 88.53,354.446C88.703,354.707 88.821,355.022 88.884,355.392C88.947,355.763 88.978,356.175 88.978,356.63L88.978,356.971L85.755,356.971L85.755,357.444L85.755,357.444ZM87.372,355.469C87.349,355.297 87.307,355.15 87.248,355.029C87.189,354.908 87.107,354.816 87.001,354.754C86.894,354.692 86.758,354.661 86.593,354.661C86.428,354.661 86.292,354.696 86.186,354.765C86.08,354.835 85.995,354.927 85.932,355.04C85.869,355.154 85.824,355.28 85.797,355.42C85.769,355.559 85.755,355.699 85.755,355.838L85.755,356.069L87.42,356.069C87.412,355.841 87.396,355.642 87.372,355.469L87.372,355.469Z" style="fill:white;fill-rule:nonzero;"/>
            <path d="M91.386,353.781L91.386,354.573L91.41,354.573C91.575,354.287 91.776,354.058 92.012,353.885C92.248,353.713 92.535,353.627 92.874,353.627C92.921,353.627 92.97,353.628 93.021,353.632C93.073,353.636 93.121,353.642 93.169,353.649L93.169,355.101C93.082,355.094 92.998,355.088 92.915,355.084C92.832,355.081 92.748,355.079 92.661,355.079C92.519,355.079 92.378,355.097 92.236,355.134C92.095,355.17 91.965,355.231 91.847,355.315C91.729,355.399 91.634,355.51 91.563,355.645C91.493,355.781 91.457,355.948 91.457,356.146L91.457,359.699L89.828,359.699L89.828,353.781L91.386,353.781L91.386,353.781Z" style="fill:white;fill-rule:nonzero;"/>
        </g>
    </g>
    <g id="Proto_2.0_Hardware">
        <path d="M1.248,167.873L23.568,167.873" style="fill:none;fill-rule:nonzero;stroke:white;stroke-width:3px;stroke-linecap:butt;stroke-linejoin:miter;"/>
        <path d="M30.045,247.035L52.364,247.035" style="fill:none;fill-rule:nonzero;stroke:white;stroke-width:3px;stroke-linecap:butt;stroke-linejoin:miter;"/>
        <path d="M1.248,247.13L23.568,247.13" style="fill:none;fill-rule:nonzero;stroke:white;stroke-width:3px;stroke-linecap:butt;stroke-linejoin:miter;"/>
        <path d="M87.694,246.997L110.013,246.997" style="fill:none;fill-rule:nonzero;stroke:white;stroke-width:3px;stroke-linecap:butt;stroke-linejoin:miter;"/>
        <path d="M58.926,247.054L81.245,247.054" style="fill:none;fill-rule:nonzero;stroke:white;stroke-width:3px;stroke-linecap:butt;stroke-linejoin:miter;"/>
        <g>
            <path d="M23.208,167.873C23.208,161.908 18.373,157.074 12.409,157.074C6.444,157.074 1.609,161.908 1.609,167.873C1.609,173.838 6.444,178.674 12.409,178.674C18.373,178.674 23.208,173.838 23.208,167.873Z" style="fill:rgb(176,172,176);fill-rule:nonzero;stroke:rgb(149,149,149);stroke-width:1px;stroke-linecap:butt;stroke-linejoin:miter;"/>
            <path d="M23.569,167.873C23.569,161.711 18.572,157.074 12.409,157.074C6.245,157.074 1.248,161.711 1.248,167.873C1.248,174.035 6.245,179.033 12.409,179.033C18.572,179.033 23.569,174.037 23.569,167.873Z" style="fill:none;fill-rule:nonzero;stroke:rgb(193,193,193);stroke-width:1.5px;stroke-linecap:butt;stroke-linejoin:miter;stroke-dasharray:1.5,1.5;"/>
            <path d="M1.36,166.859L23.568,166.859" style="fill:none;fill-rule:nonzero;stroke:rgb(115,115,115);stroke-width:1px;stroke-linecap:butt;stroke-linejoin:miter;"/>
            <path d="M1.36,170.018L23.361,170.018" style="fill:none;fill-rule:nonzero;stroke:rgb(124,124,124);stroke-width:1px;stroke-linecap:butt;stroke-linejoin:miter;"/>
            <circle cx="12.409" cy="167.873" r="7.92" style="fill:rgb(233,233,234);stroke:rgb(146,146,146);stroke-width:1px;stroke-linecap:butt;stroke-linejoin:miter;"/>
            <path d="M18.529,167.873C18.529,164.494 15.788,161.754 12.409,161.754C9.029,161.754 6.288,164.494 6.288,167.873C6.288,171.254 9.029,173.994 12.409,173.994C15.788,173.994 18.529,171.254 18.529,167.873Z" style="fill-rule:nonzero;stroke:rgb(179,179,179);stroke-width:1px;stroke-linecap:butt;stroke-linejoin:miter;"/>
        </g>
        <g>
            <path d="M52.008,167.873C52.008,161.908 47.173,157.074 41.209,157.074C35.244,157.074 30.409,161.908 30.409,167.873C30.409,173.838 35.244,178.674 41.209,178.674C47.173,178.674 52.008,173.838 52.008,167.873Z" style="fill:rgb(176,172,176);fill-rule:nonzero;stroke:rgb(149,149,149);stroke-width:1px;stroke-linecap:butt;stroke-linejoin:miter;"/>
            <path d="M52.369,167.873C52.369,161.711 47.372,157.074 41.209,157.074C35.045,157.074 30.048,161.711 30.048,167.873C30.048,174.035 35.045,179.033 41.209,179.033C47.372,179.033 52.369,174.037 52.369,167.873Z" style="fill:none;fill-rule:nonzero;stroke:rgb(193,193,193);stroke-width:1.5px;stroke-linecap:butt;stroke-linejoin:miter;stroke-dasharray:1.5,1.5;"/>
            <path d="M30.16,166.859L52.368,166.859" style="fill:none;fill-rule:nonzero;stroke:rgb(115,115,115);stroke-width:1px;stroke-linecap:butt;stroke-linejoin:miter;"/>
            <path d="M30.16,170.018L52.161,170.018" style="fill:none;fill-rule:nonzero;stroke:rgb(124,124,124);stroke-width:1px;stroke-linecap:butt;stroke-linejoin:miter;"/>
            <circle cx="41.209" cy="167.873" r="7.92" style="fill:rgb(233,233,234);stroke:rgb(146,146,146);stroke-width:1px;stroke-linecap:butt;stroke-linejoin:miter;"/>
            <path d="M47.329,167.873C47.329,164.494 44.588,161.754 41.209,161.754C37.829,161.754 35.088,164.494 35.088,167.873C35.088,171.254 37.829,173.994 41.209,173.994C44.588,173.994 47.329,171.254 47.329,167.873Z" style="fill-rule:nonzero;stroke:rgb(179,179,179);stroke-width:1px;stroke-linecap:butt;stroke-linejoin:miter;"/>
        </g>
        <g>
            <path d="M80.808,167.873C80.808,161.908 75.973,157.074 70.008,157.074C64.044,157.074 59.209,161.908 59.209,167.873C59.209,173.838 64.044,178.674 70.008,178.674C75.973,178.674 80.808,173.838 80.808,167.873Z" style="fill:rgb(176,172,176);fill-rule:nonzero;stroke:rgb(149,149,149);stroke-width:1px;stroke-linecap:butt;stroke-linejoin:miter;"/>
            <path d="M81.169,167.873C81.169,161.711 76.172,157.074 70.008,157.074C63.845,157.074 58.848,161.711 58.848,167.873C58.848,174.035 63.845,179.033 70.008,179.033C76.172,179.033 81.169,174.037 81.169,167.873Z" style="fill:none;fill-rule:nonzero;stroke:rgb(193,193,193);stroke-width:1.5px;stroke-linecap:butt;stroke-linejoin:miter;stroke-dasharray:1.5,1.5;"/>
            <path d="M58.96,166.859L81.168,166.859" style="fill:none;fill-rule:nonzero;stroke:rgb(115,115,115);stroke-width:1px;stroke-linecap:butt;stroke-linejoin:miter;"/>
            <path d="M58.96,170.018L80.961,170.018" style="fill:none;fill-rule:nonzero;stroke:rgb(124,124,124);stroke-width:1px;stroke-linecap:butt;stroke-linejoin:miter;"/>
            <circle cx="70.008" cy="167.873" r="7.92" style="fill:rgb(233,233,234);stroke:rgb(146,146,146);stroke-width:1px;stroke-linecap:butt;stroke-linejoin:miter;"/>
            <path d="M76.129,167.873C76.129,164.494 73.388,161.754 70.009,161.754C66.629,161.754 63.888,164.494 63.888,167.873C63.888,171.254 66.629,173.994 70.009,173.994C73.388,173.994 76.129,171.254 76.129,167.873Z" style="fill-rule:nonzero;stroke:rgb(179,179,179);stroke-width:1px;stroke-linecap:butt;stroke-linejoin:miter;"/>
        </g>
        <g>
            <path d="M109.608,167.873C109.608,161.908 104.773,157.074 98.808,157.074C92.844,157.074 88.009,161.908 88.009,167.873C88.009,173.838 92.844,178.674 98.808,178.674C104.773,178.674 109.608,173.838 109.608,167.873Z" style="fill:rgb(176,172,176);fill-rule:nonzero;stroke:rgb(149,149,149);stroke-width:1px;stroke-linecap:butt;stroke-linejoin:miter;"/>
            <path d="M109.969,167.873C109.969,161.711 104.972,157.074 98.808,157.074C92.645,157.074 87.648,161.711 87.648,167.873C87.648,174.035 92.645,179.033 98.808,179.033C104.972,179.033 109.969,174.037 109.969,167.873Z" style="fill:none;fill-rule:nonzero;stroke:rgb(193,193,193);stroke-width:1.5px;stroke-linecap:butt;stroke-linejoin:miter;stroke-dasharray:1.5,1.5;"/>
            <path d="M87.76,166.859L109.968,166.859" style="fill:none;fill-rule:nonzero;stroke:rgb(115,115,115);stroke-width:1px;stroke-linecap:butt;stroke-linejoin:miter;"/>
            <path d="M87.76,170.018L109.761,170.018" style="fill:none;fill-rule:nonzero;stroke:rgb(124,124,124);stroke-width:1px;stroke-linecap:butt;stroke-linejoin:miter;"/>
            <circle cx="98.808" cy="167.873" r="7.92" style="fill:rgb(233,233,234);stroke:rgb(146,146,146);stroke-width:1px;stroke-linecap:butt;stroke-linejoin:miter;"/>
            <path d="M104.929,167.873C104.929,164.494 102.188,161.754 98.809,161.754C95.429,161.754 92.688,164.494 92.688,167.873C92.688,171.254 95.429,173.994 98.809,173.994C102.188,173.994 104.929,171.254 104.929,167.873Z" style="fill-rule:nonzero;stroke:rgb(179,179,179);stroke-width:1px;stroke-linecap:butt;stroke-linejoin:miter;"/>
        </g>
        <path d="M1.248,207.473L23.568,207.473" style="fill:none;fill-rule:nonzero;stroke:white;stroke-width:3px;stroke-linecap:butt;stroke-linejoin:miter;"/>
        <g>
            <path d="M23.208,207.473C23.208,201.508 18.373,196.674 12.409,196.674C6.444,196.674 1.609,201.508 1.609,207.473C1.609,213.438 6.444,218.274 12.409,218.274C18.373,218.274 23.208,213.438 23.208,207.473Z" style="fill:rgb(176,172,176);fill-rule:nonzero;stroke:rgb(149,149,149);stroke-width:1px;stroke-linecap:butt;stroke-linejoin:miter;"/>
            <path d="M23.569,207.473C23.569,201.311 18.572,196.674 12.409,196.674C6.245,196.674 1.248,201.311 1.248,207.473C1.248,213.635 6.245,218.633 12.409,218.633C18.572,218.633 23.569,213.637 23.569,207.473Z" style="fill:none;fill-rule:nonzero;stroke:rgb(193,193,193);stroke-width:1.5px;stroke-linecap:butt;stroke-linejoin:miter;stroke-dasharray:1.5,1.5;"/>
            <path d="M1.36,206.459L23.568,206.459" style="fill:none;fill-rule:nonzero;stroke:rgb(115,115,115);stroke-width:1px;stroke-linecap:butt;stroke-linejoin:miter;"/>
            <path d="M1.36,209.618L23.361,209.618" style="fill:none;fill-rule:nonzero;stroke:rgb(124,124,124);stroke-width:1px;stroke-linecap:butt;stroke-linejoin:miter;"/>
            <circle cx="12.409" cy="207.473" r="7.92" style="fill:rgb(233,233,234);stroke:rgb(146,146,146);stroke-width:1px;stroke-linecap:butt;stroke-linejoin:miter;"/>
            <path d="M18.529,207.473C18.529,204.094 15.788,201.354 12.409,201.354C9.029,201.354 6.288,204.094 6.288,207.473C6.288,210.854 9.029,213.594 12.409,213.594C15.788,213.594 18.529,210.854 18.529,207.473Z" style="fill-rule:nonzero;stroke:rgb(179,179,179);stroke-width:1px;stroke-linecap:butt;stroke-linejoin:miter;"/>
        </g>
        <g>
            <path d="M52.008,207.473C52.008,201.508 47.173,196.674 41.209,196.674C35.244,196.674 30.409,201.508 30.409,207.473C30.409,213.438 35.244,218.274 41.209,218.274C47.173,218.274 52.008,213.438 52.008,207.473Z" style="fill:rgb(176,172,176);fill-rule:nonzero;stroke:rgb(149,149,149);stroke-width:1px;stroke-linecap:butt;stroke-linejoin:miter;"/>
            <path d="M52.369,207.473C52.369,201.311 47.372,196.674 41.209,196.674C35.045,196.674 30.048,201.311 30.048,207.473C30.048,213.635 35.045,218.633 41.209,218.633C47.372,218.633 52.369,213.637 52.369,207.473Z" style="fill:none;fill-rule:nonzero;stroke:rgb(193,193,193);stroke-width:1.5px;stroke-linecap:butt;stroke-linejoin:miter;stroke-dasharray:1.5,1.5;"/>
            <path d="M30.16,206.459L52.368,206.459" style="fill:none;fill-rule:nonzero;stroke:rgb(115,115,115);stroke-width:1px;stroke-linecap:butt;stroke-linejoin:miter;"/>
            <path d="M30.16,209.618L52.161,209.618" style="fill:none;fill-rule:nonzero;stroke:rgb(124,124,124);stroke-width:1px;stroke-linecap:butt;stroke-linejoin:miter;"/>
            <circle cx="41.209" cy="207.473" r="7.92" style="fill:rgb(233,233,234);stroke:rgb(146,146,146);stroke-width:1px;stroke-linecap:butt;stroke-linejoin:miter;"/>
            <path d="M47.329,207.473C47.329,204.094 44.588,201.354 41.209,201.354C37.829,201.354 35.088,204.094 35.088,207.473C35.088,210.854 37.829,213.594 41.209,213.594C44.588,213.594 47.329,210.854 47.329,207.473Z" style="fill-rule:nonzero;stroke:rgb(179,179,179);stroke-width:1px;stroke-linecap:butt;stroke-linejoin:miter;"/>
        </g>
        <g>
            <path d="M80.808,207.473C80.808,201.508 75.973,196.674 70.008,196.674C64.044,196.674 59.209,201.508 59.209,207.473C59.209,213.438 64.044,218.274 70.008,218.274C75.973,218.274 80.808,213.438 80.808,207.473Z" style="fill:rgb(176,172,176);fill-rule:nonzero;stroke:rgb(149,149,149);stroke-width:1px;stroke-linecap:butt;stroke-linejoin:miter;"/>
            <path d="M81.169,207.473C81.169,201.311 76.172,196.674 70.008,196.674C63.845,196.674 58.848,201.311 58.848,207.473C58.848,213.635 63.845,218.633 70.008,218.633C76.172,218.633 81.169,213.637 81.169,207.473Z" style="fill:none;fill-rule:nonzero;stroke:rgb(193,193,193);stroke-width:1.5px;stroke-linecap:butt;stroke-linejoin:miter;stroke-dasharray:1.5,1.5;"/>
            <path d="M58.96,206.459L81.168,206.459" style="fill:none;fill-rule:nonzero;stroke:rgb(115,115,115);stroke-width:1px;stroke-linecap:butt;stroke-linejoin:miter;"/>
            <path d="M58.96,209.618L80.961,209.618" style="fill:none;fill-rule:nonzero;stroke:rgb(124,124,124);stroke-width:1px;stroke-linecap:butt;stroke-linejoin:miter;"/>
            <circle cx="70.008" cy="207.473" r="7.92" style="fill:rgb(233,233,234);stroke:rgb(146,146,146);stroke-width:1px;stroke-linecap:butt;stroke-linejoin:miter;"/>
            <path d="M76.129,207.473C76.129,204.094 73.388,201.354 70.009,201.354C66.629,201.354 63.888,204.094 63.888,207.473C63.888,210.854 66.629,213.594 70.009,213.594C73.388,213.594 76.129,210.854 76.129,207.473Z" style="fill-rule:nonzero;stroke:rgb(179,179,179);stroke-width:1px;stroke-linecap:butt;stroke-linejoin:miter;"/>
        </g>
        <g>
            <path d="M109.608,207.473C109.608,201.508 104.773,196.674 98.808,196.674C92.844,196.674 88.009,201.508 88.009,207.473C88.009,213.438 92.844,218.274 98.808,218.274C104.773,218.274 109.608,213.438 109.608,207.473Z" style="fill:rgb(176,172,176);fill-rule:nonzero;stroke:rgb(149,149,149);stroke-width:1px;stroke-linecap:butt;stroke-linejoin:miter;"/>
            <path d="M109.969,207.473C109.969,201.311 104.972,196.674 98.808,196.674C92.645,196.674 87.648,201.311 87.648,207.473C87.648,213.635 92.645,218.633 98.808,218.633C104.972,218.633 109.969,213.637 109.969,207.473Z" style="fill:none;fill-rule:nonzero;stroke:rgb(193,193,193);stroke-width:1.5px;stroke-linecap:butt;stroke-linejoin:miter;stroke-dasharray:1.5,1.5;"/>
            <path d="M87.76,206.459L109.968,206.459" style="fill:none;fill-rule:nonzero;stroke:rgb(115,115,115);stroke-width:1px;stroke-linecap:butt;stroke-linejoin:miter;"/>
            <path d="M87.76,209.618L109.761,209.618" style="fill:none;fill-rule:nonzero;stroke:rgb(124,124,124);stroke-width:1px;stroke-linecap:butt;stroke-linejoin:miter;"/>
            <circle cx="98.808" cy="207.473" r="7.92" style="fill:rgb(233,233,234);stroke:rgb(146,146,146);stroke-width:1px;stroke-linecap:butt;stroke-linejoin:miter;"/>
            <path d="M104.929,207.473C104.929,204.094 102.188,201.354 98.809,201.354C95.429,201.354 92.688,204.094 92.688,207.473C92.688,210.854 95.429,213.594 98.809,213.594C102.188,213.594 104.929,210.854 104.929,207.473Z" style="fill-rule:nonzero;stroke:rgb(179,179,179);stroke-width:1px;stroke-linecap:butt;stroke-linejoin:miter;"/>
        </g>
        <g>
            <path d="M52.005,247.035C52.005,241.07 47.17,236.237 41.205,236.237C35.24,236.237 30.405,241.07 30.405,247.035C30.405,253 35.24,257.836 41.205,257.836C47.17,257.836 52.005,253 52.005,247.035Z" style="fill:rgb(176,172,176);fill-rule:nonzero;stroke:rgb(149,149,149);stroke-width:1px;stroke-linecap:butt;stroke-linejoin:miter;"/>
            <path d="M52.365,247.035C52.365,240.873 47.368,236.237 41.205,236.237C35.042,236.237 30.045,240.873 30.045,247.035C30.045,253.197 35.042,258.195 41.205,258.195C47.368,258.195 52.365,253.199 52.365,247.035Z" style="fill:none;fill-rule:nonzero;stroke:rgb(193,193,193);stroke-width:1.5px;stroke-linecap:butt;stroke-linejoin:miter;stroke-dasharray:1.5,1.5;"/>
            <path d="M30.156,246.022L52.364,246.022" style="fill:none;fill-rule:nonzero;stroke:rgb(115,115,115);stroke-width:1px;stroke-linecap:butt;stroke-linejoin:miter;"/>
            <path d="M30.156,249.18L52.157,249.18" style="fill:none;fill-rule:nonzero;stroke:rgb(124,124,124);stroke-width:1px;stroke-linecap:butt;stroke-linejoin:miter;"/>
            <circle cx="41.205" cy="247.035" r="7.92" style="fill:rgb(233,233,234);stroke:rgb(146,146,146);stroke-width:1px;stroke-linecap:butt;stroke-linejoin:miter;"/>
            <path d="M47.325,247.035C47.325,243.656 44.585,240.916 41.205,240.916C37.825,240.916 35.085,243.656 35.085,247.035C35.085,250.416 37.825,253.156 41.205,253.156C44.585,253.156 47.325,250.416 47.325,247.035Z" style="fill-rule:nonzero;stroke:rgb(179,179,179);stroke-width:1px;stroke-linecap:butt;stroke-linejoin:miter;"/>
        </g>
        <g>
            <path d="M23.208,247.13C23.208,241.165 18.373,236.331 12.409,236.331C6.444,236.331 1.609,241.165 1.609,247.13C1.609,253.095 6.444,257.93 12.409,257.93C18.373,257.93 23.208,253.094 23.208,247.13Z" style="fill:rgb(176,172,176);fill-rule:nonzero;stroke:rgb(149,149,149);stroke-width:1px;stroke-linecap:butt;stroke-linejoin:miter;"/>
            <path d="M23.569,247.13C23.569,240.968 18.572,236.331 12.409,236.331C6.245,236.331 1.248,240.968 1.248,247.13C1.248,253.292 6.245,258.29 12.409,258.29C18.572,258.29 23.569,253.294 23.569,247.13Z" style="fill:none;fill-rule:nonzero;stroke:rgb(193,193,193);stroke-width:1.5px;stroke-linecap:butt;stroke-linejoin:miter;stroke-dasharray:1.5,1.5;"/>
            <path d="M1.36,246.116L23.568,246.116" style="fill:none;fill-rule:nonzero;stroke:rgb(115,115,115);stroke-width:1px;stroke-linecap:butt;stroke-linejoin:miter;"/>
            <path d="M1.36,249.274L23.361,249.274" style="fill:none;fill-rule:nonzero;stroke:rgb(124,124,124);stroke-width:1px;stroke-linecap:butt;stroke-linejoin:miter;"/>
            <circle cx="12.409" cy="247.13" r="7.92" style="fill:rgb(233,233,234);stroke:rgb(146,146,146);stroke-width:1px;stroke-linecap:butt;stroke-linejoin:miter;"/>
            <path d="M18.529,247.13C18.529,243.751 15.788,241.011 12.409,241.011C9.029,241.011 6.288,243.751 6.288,247.13C6.288,250.511 9.029,253.251 12.409,253.251C15.788,253.251 18.529,250.511 18.529,247.13Z" style="fill-rule:nonzero;stroke:rgb(179,179,179);stroke-width:1px;stroke-linecap:butt;stroke-linejoin:miter;"/>
        </g>
        <g>
            <path d="M109.654,246.997C109.654,241.032 104.819,236.198 98.854,236.198C92.889,236.198 88.054,241.032 88.054,246.997C88.054,252.962 92.889,257.798 98.854,257.798C104.819,257.798 109.654,252.962 109.654,246.997Z" style="fill:rgb(176,172,176);fill-rule:nonzero;stroke:rgb(149,149,149);stroke-width:1px;stroke-linecap:butt;stroke-linejoin:miter;"/>
            <path d="M110.014,246.997C110.014,240.835 105.017,236.198 98.854,236.198C92.691,236.198 87.694,240.835 87.694,246.997C87.694,253.159 92.691,258.157 98.854,258.157C105.017,258.157 110.014,253.161 110.014,246.997Z" style="fill:none;fill-rule:nonzero;stroke:rgb(193,193,193);stroke-width:1.5px;stroke-linecap:butt;stroke-linejoin:miter;stroke-dasharray:1.5,1.5;"/>
            <path d="M87.805,245.984L110.013,245.984" style="fill:none;fill-rule:nonzero;stroke:rgb(115,115,115);stroke-width:1px;stroke-linecap:butt;stroke-linejoin:miter;"/>
            <path d="M87.805,249.142L109.806,249.142" style="fill:none;fill-rule:nonzero;stroke:rgb(124,124,124);stroke-width:1px;stroke-linecap:butt;stroke-linejoin:miter;"/>
            <circle cx="98.854" cy="246.997" r="7.92" style="fill:rgb(233,233,234);stroke:rgb(146,146,146);stroke-width:1px;stroke-linecap:butt;stroke-linejoin:miter;"/>
            <path d="M104.974,246.997C104.974,243.618 102.234,240.878 98.854,240.878C95.474,240.878 92.734,243.618 92.734,246.997C92.734,250.378 95.474,253.118 98.854,253.118C102.234,253.118 104.974,250.378 104.974,246.997Z" style="fill-rule:nonzero;stroke:rgb(179,179,179);stroke-width:1px;stroke-linecap:butt;stroke-linejoin:miter;"/>
        </g>
        <g>
            <path d="M80.886,247.054C80.886,241.089 76.051,236.256 70.086,236.256C64.121,236.256 59.286,241.089 59.286,247.054C59.286,253.019 64.121,257.855 70.086,257.855C76.051,257.855 80.886,253.019 80.886,247.054Z" style="fill:rgb(176,172,176);fill-rule:nonzero;stroke:rgb(149,149,149);stroke-width:1px;stroke-linecap:butt;stroke-linejoin:miter;"/>
            <path d="M81.246,247.054C81.246,240.892 76.249,236.256 70.086,236.256C63.923,236.256 58.926,240.892 58.926,247.054C58.926,253.216 63.923,258.214 70.086,258.214C76.249,258.214 81.246,253.218 81.246,247.054Z" style="fill:none;fill-rule:nonzero;stroke:rgb(193,193,193);stroke-width:1.5px;stroke-linecap:butt;stroke-linejoin:miter;stroke-dasharray:1.5,1.5;"/>
            <path d="M59.037,246.041L81.245,246.041" style="fill:none;fill-rule:nonzero;stroke:rgb(115,115,115);stroke-width:1px;stroke-linecap:butt;stroke-linejoin:miter;"/>
            <path d="M59.037,249.199L81.038,249.199" style="fill:none;fill-rule:nonzero;stroke:rgb(124,124,124);stroke-width:1px;stroke-linecap:butt;stroke-linejoin:miter;"/>
            <circle cx="70.086" cy="247.054" r="7.92" style="fill:rgb(233,233,234);stroke:rgb(146,146,146);stroke-width:1px;stroke-linecap:butt;stroke-linejoin:miter;"/>
            <path d="M76.206,247.054C76.206,243.675 73.466,240.935 70.086,240.935C66.706,240.935 63.966,243.675 63.966,247.054C63.966,250.435 66.706,253.175 70.086,253.175C73.466,253.175 76.206,250.435 76.206,247.054Z" style="fill-rule:nonzero;stroke:rgb(179,179,179);stroke-width:1px;stroke-linecap:butt;stroke-linejoin:miter;"/>
        </g>
        <path d="M86.453,118.33C86.453,122.108 89.516,125.171 93.293,125.171C97.07,125.171 100.133,122.108 100.133,118.33C100.133,114.553 97.07,111.49 93.293,111.49C89.516,111.49 86.453,114.553 86.453,118.33Z" style="fill-rule:nonzero;stroke:rgb(128,128,128);stroke-width:3px;stroke-linecap:butt;stroke-linejoin:miter;"/>
        <g>
            <circle cx="17.962" cy="118.715" r="8.504" style="fill:rgb(35,31,32);"/>
            <path d="M15.153,117.065L10.627,114.544" style="fill:none;fill-rule:nonzero;stroke:rgb(252,252,252);stroke-width:2px;stroke-linecap:butt;stroke-linejoin:miter;stroke-miterlimit:10;"/>
        </g>
        <g>
            <circle cx="55.691" cy="118.431" r="8.504" style="fill:rgb(35,31,32);"/>
            <path d="M57.963,116.097L61.492,112.303" style="fill:none;fill-rule:nonzero;stroke:rgb(252,252,252);stroke-width:2px;stroke-linecap:butt;stroke-linejoin:miter;stroke-miterlimit:10;"/>
        </g>
        <g>
            <path d="M56.203,41.944L56.203,26.154" style="fill:none;fill-rule:nonzero;stroke:rgb(252,252,252);stroke-width:3px;stroke-linecap:butt;stroke-linejoin:miter;stroke-miterlimit:10;"/>
            <path d="M20.446,54.847C20.446,74.419 36.307,90.282 55.881,90.282C75.455,90.282 91.314,74.419 91.314,54.847C91.314,35.275 75.445,19.416 55.881,19.416C36.316,19.416 20.446,35.276 20.446,54.847" style="fill:rgb(35,31,32);fill-rule:nonzero;"/>
            <path d="M50.539,26.589C47.604,29.953 41.561,32.875 37.09,33.065C32.629,33.254 29.633,37 30.441,41.399C31.256,45.801 29.764,52.348 27.123,55.96C24.486,59.57 25.553,64.238 29.498,66.352C33.431,68.46 37.623,73.712 38.801,78.023C39.979,82.335 44.299,84.415 48.414,82.649C52.504,80.884 59.223,80.884 63.329,82.649C67.435,84.415 71.761,82.335 72.931,78.023C74.12,73.712 78.304,68.46 82.239,66.352C86.189,64.238 87.257,59.57 84.618,55.96C81.981,52.348 80.489,45.801 81.298,41.399C82.114,37 79.113,33.254 74.643,33.065C70.184,32.875 64.132,29.953 61.204,26.589C59.735,24.901 57.804,24.055 55.873,24.055C53.94,24.055 52.01,24.901 50.539,26.589" style="fill:none;fill-rule:nonzero;stroke:rgb(109,110,113);stroke-width:2px;stroke-linecap:butt;stroke-linejoin:miter;stroke-miterlimit:10;"/>
        </g>
        <circle cx="6.714" cy="309.281" r="4.252" style="fill:rgb(29,29,27);"/>
        <circle cx="19.952" cy="309.309" r="4.252" style="fill:rgb(29,29,27);"/>
        <circle cx="6.686" cy="322.263" r="4.252" style="fill:rgb(29,29,27);"/>
        <circle cx="19.952" cy="322.235" r="4.252" style="fill:rgb(29,29,27);"/>
        <circle cx="6.714" cy="335.189" r="4.252" style="fill:rgb(29,29,27);"/>
        <circle cx="19.924" cy="335.189" r="4.252" style="fill:rgb(29,29,27);"/>
        <g transform="matrix(-0,-1,1,-0,-274.5159,293.535)">
            <path d="M22.039,283.164L22.039,284.887C22.039,286.805 20.482,288.362 18.563,288.362L0.456,288.362C-1.462,288.362 -3.019,286.805 -3.019,284.887L-3.019,283.164C-3.019,281.246 -1.462,279.688 0.456,279.688L18.563,279.688C20.482,279.688 22.039,281.246 22.039,283.164Z" style="fill:rgb(35,31,32);stroke:rgb(128,130,133);stroke-width:0.5px;stroke-linecap:butt;stroke-linejoin:miter;"/>
        </g>
        <rect x="47.503" y="327.814" width="36.452" height="6.687" style="fill:rgb(35,31,32);"/>
        <circle cx="99.712" cy="332.802" r="5.669" style="fill:rgb(29,29,27);"/>
        <g>
            <circle cx="21.331" cy="8.329" r="5.386" style="fill:rgb(50,48,49);"/>
            <g transform="matrix(-0.753916,-0.656971,0.656971,-0.753916,31.94,28.6218)">
                <rect x="20.41" y="4.213" width="1.84" height="8.231" style="fill:rgb(88,89,91);"/>
            </g>
            <g transform="matrix(-0.656971,0.753916,-0.753916,-0.656971,41.6234,-2.2805)">
                <rect x="20.41" y="4.213" width="1.84" height="8.231" style="fill:rgb(88,89,91);"/>
            </g>
        </g>
        <g>
            <circle cx="21.369" cy="355.596" r="5.386" style="fill:rgb(50,48,49);"/>
            <g transform="matrix(0.990118,-0.140236,0.140236,0.990118,-49.6564,6.5107)">
                <rect x="20.449" y="351.48" width="1.84" height="8.231" style="fill:rgb(88,89,91);"/>
            </g>
            <g transform="matrix(-0.140236,-0.990118,0.990118,-0.140236,-327.7165,426.6214)">
                <rect x="20.449" y="351.48" width="1.84" height="8.231" style="fill:rgb(88,89,91);"/>
            </g>
        </g>
        <path d="M101.93,125.925L91.057,129.534L82.495,121.922L84.806,110.702L95.679,107.093L104.241,114.705L101.93,125.925Z" style="fill:rgb(109,110,113);fill-rule:nonzero;"/>
        <path d="M86.311,117.988C86.311,121.765 89.374,124.828 93.151,124.828C96.929,124.828 99.991,121.765 99.991,117.988C99.991,114.21 96.929,111.148 93.151,111.148C89.374,111.148 86.311,114.21 86.311,117.988Z" style="fill-rule:nonzero;stroke:rgb(128,128,128);stroke-width:3px;stroke-linecap:butt;stroke-linejoin:miter;"/>
        <path d="M96.868,109.317C96.868,106.931 95.679,104.953 93.293,104.953C90.907,104.953 89.868,106.743 89.868,109.129L90.053,117.668C90.053,119.457 91.503,120.908 93.293,120.908C95.083,120.908 96.533,119.457 96.533,117.668L96.868,109.317" style="fill:rgb(205,204,203);fill-rule:nonzero;stroke:black;stroke-width:1px;stroke-linecap:butt;stroke-linejoin:miter;"/>
    </g>
</svg>
