<?xml version="1.0" encoding="UTF-8"?>
<svg id="Layer_1" data-name="Layer 1" xmlns="http://www.w3.org/2000/svg" version="1.1" xmlns:serif="http://www.serif.com/" viewBox="0 0 33.9 33.9" width="33.9" height="33.9">
  <path d="M27.1,3.1c-.4-.4-1.1,0-1.4,0s-1.6.4-3.5-.4c-1.3-.6-1.8-1.3-2.1-1.8-.2-.3-.3-.5-.4-.6C19.3,0,18.7,0,18.7,0h-4.1s-.4,0-.4,0c-.6,0-.8.8-1,1-.2.2-.8,1.4-2.8,2.2-2,.8-2.9,0-3.5,0-.3,0-.7.4-.7.4l-2.9,2.9-.2.3c-.4.4,0,1.1,0,1.4,0,.3.4,1.6-.4,3.5-.9,2-2,2.1-2.4,2.6C0,14.6,0,15.2,0,15.2v4.1s0,.4,0,.4c0,.6.8.9,1,1,.2.2,1.4.8,2.2,2.8.8,2,0,2.9,0,3.5,0,.3.4.7.4.7l2.9,2.9.3.2c.4.4,1.1,0,1.4,0,.3,0,1.6-.4,3.5.4,1.3.6,1.8,1.3,2.1,1.8.2.3.3.5.4.6.3.2.8.2.8.2h4.1s.4,0,.4,0c.6,0,.9-.8,1-1,.2-.2.8-1.4,2.8-2.2,2-.8,2.9,0,3.5,0,.3,0,.7-.4.7-.4l2.9-2.9.2-.3c.4-.4,0-1.1,0-1.4,0-.3-.4-1.6.4-3.5.9-2,2-2.1,2.4-2.6.2-.3.2-.8.2-.8v-4.1s0-.4,0-.4c0-.6-.8-.8-1-1-.2-.2-1.4-.8-2.2-2.8-.8-2,0-2.9,0-3.5,0-.3-.4-.7-.4-.7l-2.9-2.9-.3-.2h0Z" fill="#221f20"/>
  <path d="M17,14V0" fill="none" stroke="#fcfcfc" stroke-width="2" stroke-miterlimit="10"/>
</svg>